<svg xmlns="http://www.w3.org/2000/svg" fill="none" viewBox="0 0 490 380">
<!--! 
Windows 11 icons for Home Assistant and Raspberry Pi - https://github.com/velijv/home-assistant-folder-icons
by Veli - https://github.com/velijv - https://twitter.com/velivelilev - https://veli.ee 
-->     
  <path fill="#CD2355" d="M0 352.5V30C0 13.431 13.431 0 30 0h128.074a30 30 0 0 1 21.213 8.787l32.926 32.926a30 30 0 0 0 21.213 8.787H460c16.569 0 30 13.431 30 30v272c0 16.569-13.431 30-30 30H30c-16.569 0-30-13.431-30-30Z"/>
  <path fill="url(#a)" d="M0 344V117.5c0-16.569 13.431-30 30-30h131.587a30 30 0 0 0 14.26-3.606l35.702-19.288A30.003 30.003 0 0 1 225.809 61H459c16.569 0 30 13.431 30 30v253c0 16.569-13.431 30-30 30H30c-16.569 0-30-13.431-30-30Z"/>
  <g filter="url(#b)">
    <path fill="#46AF4B" d="M266.785 139.618a.93.93 0 0 1 .445-.016.92.92 0 0 1 .723.996c-.294 2.745 1.368 2.398 1.764 1.912a14.4 14.4 0 0 1 13.019-6.249.923.923 0 0 1 .753.556.917.917 0 0 1-.124.927c-1.633 2.422.123 2.883.776 2.45 6.661-4.165 13.016-4.178 15.458-2.426a.92.92 0 0 1 .053 1.426c-2.467 2.099-1.087 3.144-.213 2.826a23.688 23.688 0 0 1 19.358 2.479.931.931 0 0 1 .332.694.936.936 0 0 1-.308.706 18.363 18.363 0 0 0-7.065 12.325c-.183 1.618 2.508 1.279 3.639.985a.913.913 0 0 1 .777.155.923.923 0 0 1 .367.702c.106 3.896-3.578 8.176-9.058 11.835-.736.49-.629 1.667 1.045 1.716a.904.904 0 0 1 .78 1.364c-1.952 3.626-4.615 7.04-13.66 9.384a.923.923 0 0 0-.695.829.93.93 0 0 0 .564.923.89.89 0 0 1 .589 1.181.891.891 0 0 1-.299.387c-9.013 7.743-31.854 4.689-34.754-8.343a.911.911 0 0 1 .163-.743 86.84 86.84 0 0 1 37.882-28.824.716.716 0 0 0 .465-.859.717.717 0 0 0-.82-.53 61.958 61.958 0 0 0-41.141 24.806.928.928 0 0 1-1.18.265c-14.641-7.559-2.614-29.881 10.365-33.839Zm-86.092 35.358a.899.899 0 0 1-.005-.907.911.911 0 0 1 .785-.457c1.674-.04 1.78-1.221 1.045-1.711-5.48-3.659-9.156-7.939-9.058-11.831a.923.923 0 0 1 .738-.867.913.913 0 0 1 .406.01c1.135.294 3.822.633 3.638-.985a18.345 18.345 0 0 0-7.065-12.321.921.921 0 0 1-.31-.708.924.924 0 0 1 .335-.696 23.687 23.687 0 0 1 19.357-2.479c.874.322 2.255-.727-.212-2.826a.927.927 0 0 1-.313-.729.91.91 0 0 1 .37-.701c2.438-1.748 8.793-1.739 15.458 2.426.649.437 2.405-.024.775-2.446a.924.924 0 0 1 .174-1.307.937.937 0 0 1 .451-.176 14.4 14.4 0 0 1 13.024 6.245c.392.49 2.054.833 1.764-1.916a.928.928 0 0 1 .325-.798.92.92 0 0 1 .843-.178c12.979 3.962 25.001 26.28 10.361 33.839a.93.93 0 0 1-1.18-.265 61.956 61.956 0 0 0-41.137-24.802.723.723 0 0 0-.829.527.716.716 0 0 0 .469.862 86.819 86.819 0 0 1 37.882 28.82.904.904 0 0 1 .164.747c-2.9 13.028-25.741 16.082-34.754 8.339a.884.884 0 0 1-.128-1.313.89.89 0 0 1 .418-.255.925.925 0 0 0 .353-1.448.929.929 0 0 0-.48-.304c-9.05-2.344-11.708-5.758-13.664-9.384v-.005Z"/>
    <path fill="url(#c)" d="M302.692 214.815c3.758 9.989.829 14.792-8.077 9.707a63.832 63.832 0 0 1-18.705-15.682c-6.713-7.972-2.352-11.521 8.217-9.605a28.515 28.515 0 0 1 18.565 15.58Zm-39.952-11.239c12.742 10.589-1.854 18.083-17.736 18.083-15.887 0-30.478-7.494-17.741-18.083a28.319 28.319 0 0 1 35.477 0Zm-75.425 11.239a28.517 28.517 0 0 1 18.561-15.58c10.569-1.92 14.931 1.633 8.221 9.605a63.841 63.841 0 0 1-18.704 15.682c-8.911 5.085-11.835.282-8.078-9.707Zm-18.427 55.504a28.518 28.518 0 0 1 2.116-24.267c4.709-8.004 9.446-7.69 11.324-.906a42.55 42.55 0 0 1-2.45 28.044c-3.487 6.926-7.845 4.586-10.99-2.871Zm33.937 51.865a28.352 28.352 0 0 1-21.326-25.304c1.769-41.108 61.013 32.304 21.326 25.304Zm1.205-51.204c-9.936-5.733-12.566-19.782-5.872-31.372 6.693-11.594 20.174-16.336 30.106-10.602 9.936 5.734 12.566 19.783 5.872 31.373-6.693 11.594-20.174 16.335-30.106 10.601Zm57.55 66.89a28.371 28.371 0 0 1-33.157 0c-9.842-6.796.061-14.62 16.581-14.62 16.519 0 26.422 7.824 16.58 14.62h-.004Z"/>
    <path fill="url(#d)" d="M245.001 312.95c12.737 0 23.062-8.85 23.062-19.766 0-10.917-10.325-19.766-23.062-19.766-12.737 0-23.062 8.849-23.062 19.766 0 10.916 10.325 19.766 23.062 19.766Z"/>
    <path fill="url(#e)" d="M255.865 260.378c-6.693-11.59-4.063-25.638 5.873-31.372 9.936-5.738 23.417-.992 30.106 10.602 6.698 11.59 4.064 25.638-5.872 31.372-9.932 5.738-23.413.992-30.107-10.602Zm31.315 61.806c-39.695 6.999 19.558-66.412 21.318-25.304a28.347 28.347 0 0 1-21.322 25.304h.004Zm33.937-51.865c-3.144 7.457-7.506 9.797-10.989 2.87a42.54 42.54 0 0 1-2.451-28.043c1.879-6.78 6.616-7.102 11.321.906a28.516 28.516 0 0 1 2.115 24.267h.004Z"/>
  </g>
  <defs>
    <linearGradient id="a" x1="0" x2="488.27" y1="107.5" y2="374.42" gradientUnits="userSpaceOnUse">
      <stop offset="0" stop-color="#DC6588"/>
      <stop offset="1" stop-color="#CD2355"/>
    </linearGradient>
    <linearGradient id="c" x1="235.705" x2="235.705" y1="197.333" y2="343.218" gradientUnits="userSpaceOnUse">
      <stop offset="0" stop-color="#FAFCFF"/>
      <stop offset="1" stop-color="#D7E4FF"/>
    </linearGradient>
    <linearGradient id="d" x1="245.001" x2="245.001" y1="273.418" y2="312.95" gradientUnits="userSpaceOnUse">
      <stop offset="0" stop-color="#FAFCFF"/>
      <stop offset="1" stop-color="#D7E4FF"/>
    </linearGradient>
    <linearGradient id="e" x1="287.523" x2="287.523" y1="226.57" y2="322.658" gradientUnits="userSpaceOnUse">
      <stop offset="0" stop-color="#FAFCFF"/>
      <stop offset="1" stop-color="#D7E4FF"/>
    </linearGradient>
    <filter id="b" width="249.768" height="301" x="120.117" y="96.218" color-interpolation-filters="sRGB" filterUnits="userSpaceOnUse">
      <feFlood flood-opacity="0" result="BackgroundImageFix"/>
      <feColorMatrix in="SourceAlpha" result="hardAlpha" values="0 0 0 0 0 0 0 0 0 0 0 0 0 0 0 0 0 0 127 0"/>
      <feOffset dy="7"/>
      <feGaussianBlur stdDeviation="23.5"/>
      <feColorMatrix values="0 0 0 0 0 0 0 0 0 0 0 0 0 0 0 0 0 0 0.25 0"/>
      <feBlend in2="BackgroundImageFix" result="DropShadow"/>
      <feBlend in="SourceGraphic" in2="DropShadow" result="shape"/>
    </filter>
  </defs>
</svg>
