<svg xmlns="http://www.w3.org/2000/svg" fill="none" viewBox="0 0 490 380">
<!--! 
Windows 11 icons for Home Assistant and Raspberry Pi - https://github.com/velijv/home-assistant-folder-icons
by Veli - https://github.com/velijv - https://twitter.com/velivelilev - https://veli.ee 
-->       
  <path fill="#CD2355" d="M0 352.5V30C0 13.431 13.431 0 30 0h128.074a30 30 0 0 1 21.213 8.787l32.926 32.926a30 30 0 0 0 21.213 8.787H460c16.569 0 30 13.431 30 30v272c0 16.569-13.431 30-30 30H30c-16.569 0-30-13.431-30-30Z"/>
  <path fill="url(#a)" d="M0 344V117.5c0-16.569 13.431-30 30-30h131.587a30 30 0 0 0 14.26-3.606l35.702-19.288A30.003 30.003 0 0 1 225.809 61H459c16.569 0 30 13.431 30 30v253c0 16.569-13.431 30-30 30H30c-16.569 0-30-13.431-30-30Z"/>
  <path fill="#fff" fill-opacity=".5" d="M105.358 225.381c.128.71.322 1.161.515 1.354.967-1.031 1.676-2.063 2.901-3.03 0 .581-.258 1.161.452 1.612.644-.903 1.547-1.676 2.707-2.321-.58.967-.129 1.29.194 1.676.902-.773 1.74-1.547 3.352-2.127-.451.516-1.096 1.096-.387 1.676.903-.58 1.805-1.16 3.997-1.547-.516.516-1.483 1.096-.902 1.612a16.354 16.354 0 0 1 3.803-.967c-.645.58-1.225 1.095-.709 1.547 1.225-.387 2.901-.903 4.577-.452l-1.031 1.032c-.129.129 2.449.129 4.126.129-.645.838-1.225 1.676-1.612 3.159.193.193 1.031.064 1.805 0-.838 1.676-2.192 2.127-2.579 2.836.516.387 1.161.258 1.934 0-.58 1.225-1.805 1.999-2.772 3.03.258.194.645.258 1.676.129-.902.967-1.998 1.805-3.223 2.579.193.258 1.031.258 1.741.258-1.161 1.16-2.644 1.74-4.062 2.45.709.451 1.225.386 1.741.386-.967.838-2.643 1.225-4.255 1.741.322.451.58.58 1.225.709-1.676.903-3.997.516-4.706.967.193.451.644.774 1.16 1.032-2.643.129-9.928-.129-11.346-5.609 2.708-2.966 7.672-6.511 16.246-10.831-6.64 2.192-12.636 5.158-17.664 9.284-5.802-2.579-1.741-9.541 1.096-12.314Zm-27.206 17.663c.645-.129.903-.258 1.225-.71-1.547-.515-3.223-.902-4.255-1.74.516 0 1.032.129 1.74-.387-1.417-.774-2.9-1.354-4.06-2.45.709 0 1.482 0 1.74-.258-1.29-.773-2.385-1.676-3.223-2.578 1.031.129 1.418 0 1.676-.129-.967-.967-2.192-1.805-2.772-3.03.773.258 1.418.322 1.934 0-.322-.709-1.74-1.161-2.579-2.837.774.065 1.612.194 1.805 0-.387-1.483-1.031-2.321-1.611-3.159 1.676 0 4.254 0 4.125-.129l-1.031-1.031c1.676-.451 3.352.064 4.577.451.58-.451 0-.967-.709-1.547a16.41 16.41 0 0 1 3.804.967c.58-.516-.387-1.096-.903-1.612 2.192.387 3.094.967 3.997 1.547.645-.644.064-1.16-.387-1.676 1.612.581 2.45 1.354 3.352 2.128.323-.387.774-.709.194-1.676 1.16.644 2.063 1.418 2.708 2.32.709-.451.45-1.096.45-1.611 1.226.967 2 1.998 2.902 3.03.193-.129.322-.581.516-1.354 2.9 2.772 6.962 9.67 1.031 12.442-5.028-4.061-11.024-7.027-17.664-9.283 8.51 4.319 13.474 7.865 16.246 10.83-1.419 5.48-8.639 5.738-11.347 5.609.516-.258.968-.58 1.16-1.032-.644-.644-3.029-.193-4.64-1.095Z"/>
  <path fill="#fff" d="M124.564 259.225c-.257 3.224-17.149-11.282-14.184-11.734 7.866-1.354 14.442 3.288 14.184 11.734Zm-7.414 16.116c-4.255 2.708-10.379.967-13.667-3.932-3.288-4.9-2.515-11.089 1.676-13.861 4.255-2.708 10.379-.967 13.667 3.932 3.288 4.9 2.515 11.089-1.676 13.861Zm-17.725-30.106c4.19-.065 9.348 3.094 9.348 5.996 0 2.579-3.61 4.706-9.284 4.642-5.544-.065-9.284-2.644-9.284-5.158 0-1.999 4.513-5.609 9.22-5.48Zm-10.894 1.999c2.901.451-13.926 14.957-14.184 11.734-.322-8.446 6.254-13.088 14.184-11.734Zm-17.923 32.299c-4.127-3.224-5.416-12.766 2.192-17.021 4.577-1.161 1.547 18.697-2.192 17.021Zm15.795 17.02c-2.321 1.354-7.93.838-11.928-4.836-2.707-4.706-2.32-9.542-.45-10.96 2.836-1.676 7.22.58 10.573 4.449 2.901 3.417 4.255 9.542 1.805 11.347Zm-4.576-20.696c-4.255-2.708-5.029-8.961-1.676-13.861 3.288-4.9 9.412-6.705 13.667-3.932 4.255 2.707 5.03 8.961 1.677 13.861-3.353 4.899-9.477 6.64-13.668 3.932Zm17.663 30.365c-5.094.193-10.058-4.127-9.993-5.609-.065-2.192 6.189-3.933 10.25-3.804 4.126-.193 9.606 1.289 9.671 3.288.064 1.87-5.029 6.189-9.928 6.125Zm10.185-21.662c0 5.158-4.513 9.348-10.186 9.348s-10.25-4.126-10.315-9.219v-.129c0-5.158 4.513-9.348 10.186-9.348s10.251 4.126 10.315 9.219v.129Zm14.246 7.415c-4.384 5.996-10.316 6.254-12.508 4.577-2.321-2.127-.516-8.832 2.643-12.443 3.611-4.061 7.479-6.64 10.187-4.577 1.805 1.74 2.901 8.446-.322 12.443Zm3.997-12.635c-3.74 1.612-6.77-18.246-2.192-17.021 7.607 4.255 6.254 13.733 2.192 17.021Zm43.126-11.797v12.636h-6.382v-31.718h11.927c3.61 0 6.446.838 8.445 2.45 2.063 1.676 3.03 3.932 3.03 6.898 0 1.611-.452 3.03-1.29 4.19-.838 1.16-2.127 2.127-3.739 2.837 1.87.58 3.224 1.482 4.062 2.772.838 1.289 1.225 2.901 1.225 4.77v2.321c0 .903.129 1.805.386 2.772.258.967.645 1.676 1.225 2.128v.451h-6.511c-.58-.451-.967-1.225-1.16-2.321a17.609 17.609 0 0 1-.258-3.094v-2.257c0-1.611-.451-2.836-1.29-3.674-.838-.903-2.062-1.29-3.674-1.29h-5.996v.129Zm0-4.899h5.48c1.805 0 3.095-.387 3.997-1.161.903-.773 1.289-1.869 1.289-3.352 0-1.418-.451-2.579-1.289-3.481-.902-.838-2.192-1.29-3.868-1.29h-5.609v9.284Zm36.421 17.536a7.367 7.367 0 0 1-.58-1.676c-.194-.58-.258-1.225-.387-1.805-.645 1.16-1.483 2.127-2.579 2.836-1.096.774-2.321 1.161-3.804 1.161-2.45 0-4.384-.645-5.673-1.934-1.354-1.29-1.999-3.03-1.999-5.222 0-2.321.903-4.126 2.644-5.351 1.805-1.29 4.384-1.934 7.8-1.934h3.546v-1.87c0-1.161-.322-1.999-.902-2.643-.581-.645-1.483-.903-2.644-.903-1.031 0-1.805.258-2.385.774-.58.515-.838 1.225-.838 2.063h-6.125v-.129c-.129-1.999.774-3.675 2.579-5.158 1.805-1.418 4.255-2.192 7.221-2.192 2.836 0 5.093.709 6.834 2.128 1.74 1.418 2.643 3.481 2.643 6.124v9.735c0 1.096.064 2.128.258 3.095.193.967.451 1.934.773 2.901h-6.382Zm-5.867-4.191c1.096 0 2.128-.257 2.966-.838.902-.58 1.482-1.16 1.74-1.934v-3.352h-3.545c-1.354 0-2.386.322-3.095 1.031-.709.645-1.032 1.483-1.032 2.45 0 .774.258 1.419.774 1.87.58.516 1.289.773 2.192.773Zm28.691-2.258c0-.709-.322-1.289-1.031-1.805-.645-.516-1.934-.967-3.74-1.354-2.772-.58-4.899-1.418-6.318-2.514-1.418-1.096-2.127-2.644-2.127-4.513 0-2.063.838-3.739 2.579-5.158 1.676-1.418 3.997-2.127 6.833-2.127 3.03 0 5.416.709 7.157 2.127 1.805 1.419 2.643 3.159 2.578 5.351l-.064.129h-6.125c0-.967-.322-1.74-.902-2.321-.581-.58-1.483-.902-2.644-.902-1.031 0-1.869.258-2.449.773-.581.516-.903 1.096-.903 1.87 0 .709.322 1.354.903 1.805.644.451 1.869.903 3.739 1.225 2.901.58 5.028 1.418 6.447 2.579 1.418 1.096 2.127 2.643 2.127 4.642 0 2.127-.902 3.868-2.707 5.222-1.806 1.354-4.191 1.998-7.157 1.998-3.159 0-5.608-.773-7.414-2.385-1.805-1.612-2.707-3.417-2.578-5.416l.064-.129h5.802c.065 1.29.452 2.192 1.225 2.773.774.58 1.805.838 3.095.838 1.16 0 2.063-.258 2.708-.709.58-.581.902-1.225.902-1.999Zm31.458-4.641c0 3.481-.774 6.253-2.45 8.381-1.612 2.127-3.868 3.158-6.769 3.158a7.684 7.684 0 0 1-3.288-.709c-.967-.451-1.805-1.16-2.45-1.998v11.282h-6.317v-32.621h5.737l.387 2.772a8.02 8.02 0 0 1 2.514-2.385c.967-.58 2.128-.838 3.417-.838 2.901 0 5.157 1.16 6.769 3.417 1.612 2.256 2.45 5.286 2.45 8.961v.58Zm-6.318-.516c0-2.256-.387-3.997-1.096-5.415-.709-1.354-1.869-2.063-3.417-2.063-.967 0-1.805.193-2.449.58a4.48 4.48 0 0 0-1.612 1.676v10.315c.387.645.902 1.16 1.612 1.547.644.323 1.482.516 2.514.516 1.547 0 2.643-.58 3.417-1.805.709-1.225 1.096-2.837 1.096-4.9v-.451h-.065Zm31.525.516c0 3.481-.774 6.318-2.321 8.445-1.547 2.128-3.804 3.159-6.769 3.159-1.354 0-2.579-.258-3.546-.838-1.031-.58-1.869-1.418-2.578-2.514l-.452 2.901h-5.415v-33.974h6.318v12.893c.709-.967 1.483-1.676 2.45-2.192.967-.516 2.063-.773 3.287-.773 2.966 0 5.287 1.16 6.834 3.416 1.547 2.257 2.321 5.287 2.321 9.026v.451h-.129Zm-6.318-.451c0-2.321-.322-4.126-1.031-5.48-.645-1.354-1.805-1.999-3.417-1.999-.967 0-1.805.194-2.514.645-.71.387-1.225 1.032-1.612 1.805v9.928c.387.709.902 1.29 1.612 1.612.709.387 1.547.58 2.514.58 1.612 0 2.772-.58 3.417-1.74.644-1.161.967-2.837.967-4.964v-.387h.064Zm20.631 12.055c-3.417 0-6.125-1.096-8.124-3.288-2.063-2.192-3.03-4.964-3.03-8.316v-.903c0-3.481.967-6.382 2.901-8.639 1.935-2.256 4.513-3.417 7.737-3.352 3.159 0 5.673.967 7.414 2.901 1.741 1.934 2.643 4.513 2.643 7.801v3.481h-14.054l-.065.129c.129 1.547.645 2.837 1.547 3.804.903.967 2.192 1.483 3.74 1.483 1.418 0 2.579-.129 3.481-.452.903-.257 1.934-.709 3.03-1.353l1.741 3.932c-.967.774-2.192 1.419-3.739 1.934-1.548.581-3.288.838-5.222.838Zm-.581-19.598c-1.16 0-2.127.451-2.772 1.353-.709.903-1.096 2.064-1.289 3.546l.064.129h7.801v-.58c0-1.354-.322-2.45-.967-3.223-.58-.774-1.547-1.225-2.837-1.225Zm26.177 1.031-2.321-.065c-.967 0-1.741.193-2.321.58a4.05 4.05 0 0 0-1.419 1.676v15.925h-6.318v-23.532h5.867l.258 3.481c.58-1.225 1.289-2.192 2.128-2.901.902-.709 1.869-1.031 3.03-1.031.322 0 .58 0 .902.064.258.065.516.129.838.194l-.644 5.609Zm15.601 0-2.321-.065c-.967 0-1.74.193-2.321.58a4.04 4.04 0 0 0-1.418 1.676v15.925h-6.318v-23.532h5.867l.258 3.481c.58-1.225 1.289-2.192 2.127-2.901.903-.709 1.87-1.031 3.03-1.031.323 0 .58 0 .903.064.258.065.516.129.838.194l-.645 5.609Zm12.31 8.188.258 1.289h.129l4.512-14.957h6.834l-9.541 27.077c-.645 1.676-1.547 3.094-2.708 4.255-1.16 1.16-2.836 1.74-5.157 1.74-.516 0-1.032-.064-1.483-.129a11.788 11.788 0 0 1-1.676-.387l.709-4.641c.193 0 .387.064.58.064.194 0 .387.065.58.065 1.032 0 1.87-.258 2.386-.774a4.457 4.457 0 0 0 1.289-1.934l.709-1.805-8.381-23.531h6.834l4.126 13.668Zm32.235-1.611v11.475h-6.382v-31.718h12.636c3.61 0 6.511.902 8.574 2.772 2.063 1.87 3.159 4.319 3.159 7.349 0 3.03-1.032 5.48-3.159 7.285-2.063 1.87-4.964 2.772-8.574 2.772h-6.254v.065Zm0-4.9h6.254c1.74 0 3.094-.516 3.997-1.418.902-.967 1.353-2.192 1.353-3.675 0-1.547-.451-2.772-1.353-3.803-.903-.967-2.257-1.483-4.062-1.483h-6.253v10.379h.064Zm28.815-12.765h-6.318v-4.77h6.318v4.77Zm0 29.139h-6.318v-23.53h6.318v23.53Z"/>
  <path fill="#fff" fill-opacity=".5" fill-rule="evenodd" d="M398.621 312.667h8.058c1.419 0 2.515-1.096 2.515-2.515v-1.097h5.543c.902 0 1.676-.774 1.741-1.676 0-.903-.774-1.676-1.741-1.676h-5.543v-7.22h5.543c.902 0 1.676-.773 1.741-1.676 0-.903-.774-1.676-1.741-1.676h-5.543v-1.225a2.518 2.518 0 0 0-2.515-2.514h-8.058a2.517 2.517 0 0 0-2.515 2.514v5.735a2.396 2.396 0 0 0-.773-.128c-5.544 0-8.445 2.128-10.959 4.062-2.321 1.74-4.126 3.094-8.123 3.094-3.997 0-5.802-1.354-8.123-3.094l-.062-.047c-2.5-1.859-5.399-4.015-10.897-4.015-5.544 0-8.445 2.128-10.96 4.062-2.32 1.74-4.126 3.094-8.122 3.094-3.997 0-5.803-1.354-8.123-3.094l-.063-.047c-2.5-1.859-5.398-4.015-10.897-4.015-5.544 0-8.445 2.128-10.959 4.062-2.321 1.74-4.126 3.094-8.123 3.094-3.997 0-5.802-1.354-8.123-3.094l-.062-.047c-2.5-1.859-5.399-4.015-10.897-4.015-5.544 0-8.445 2.128-10.96 4.062-2.32 1.74-4.126 3.094-8.123 3.094-3.996 0-5.802-1.354-8.122-3.094l-.063-.047c-2.5-1.859-5.398-4.015-10.897-4.015-5.544 0-8.445 2.128-10.959 4.062-2.321 1.74-4.126 3.094-8.123 3.094-3.997 0-5.802-1.354-8.123-3.094l-.062-.047c-2.5-1.859-5.399-4.015-10.897-4.015-5.544 0-8.445 2.128-10.96 4.062-2.32 1.74-4.126 3.094-8.123 3.094-3.996 0-5.802-1.354-8.122-3.094l-.063-.047c-2.5-1.859-5.398-4.015-10.897-4.015-1.289 0-2.385 1.096-2.385 2.386 0 1.289 1.096 2.385 2.385 2.385 3.997 0 5.802 1.354 8.123 3.094l.063.047c2.499 1.859 5.398 4.015 10.896 4.015 5.545 0 8.446-2.128 10.96-4.062 2.321-1.74 4.126-3.094 8.123-3.094 3.997 0 5.802 1.354 8.123 3.094l.062.047c2.5 1.859 5.399 4.015 10.897 4.015 5.544 0 8.445-2.128 10.959-4.062 2.321-1.74 4.126-3.094 8.123-3.094 3.997 0 5.802 1.354 8.123 3.094l.063.047c2.499 1.859 5.398 4.015 10.896 4.015 5.545 0 8.446-2.128 10.96-4.062 2.321-1.74 4.126-3.094 8.123-3.094 3.997 0 5.802 1.354 8.123 3.094l.062.047c2.5 1.859 5.399 4.015 10.897 4.015 5.544 0 8.445-2.128 10.959-4.062 2.321-1.74 4.126-3.094 8.123-3.094 3.997 0 5.802 1.354 8.123 3.094l.063.047c2.5 1.859 5.398 4.015 10.897 4.015 5.544 0 8.445-2.128 10.959-4.062 2.321-1.74 4.126-3.094 8.123-3.094 3.997 0 5.802 1.354 8.123 3.094l.062.047c2.5 1.859 5.399 4.015 10.897 4.015 5.609 0 8.445-2.128 10.959-4.062 2.321-1.74 4.126-3.094 8.123-3.094.269 0 .529-.048.773-.135v6.003a2.518 2.518 0 0 0 2.515 2.515Z" clip-rule="evenodd"/>
  <path fill="#fff" fill-opacity=".5" d="M168.208 231.053v6.383h-3.546v-17.665h7.028c1.998 0 3.61.515 4.771 1.547 1.16 1.031 1.74 2.385 1.74 4.062 0 1.676-.58 3.03-1.74 4.061-1.161 1.032-2.773 1.548-4.771 1.548h-3.482v.064Zm0-2.708h3.482c.967 0 1.74-.258 2.256-.838.516-.516.774-1.225.774-2.063 0-.838-.258-1.547-.774-2.128-.516-.58-1.225-.838-2.256-.838h-3.482v5.867Zm26.82 1.87c0 2.192-.709 3.933-2.063 5.351-1.354 1.419-3.159 2.128-5.351 2.128-2.193 0-3.933-.709-5.287-2.128-1.354-1.418-2.063-3.223-2.063-5.351v-3.159c0-2.128.709-3.933 1.998-5.351 1.354-1.419 3.095-2.128 5.287-2.128 2.192 0 3.997.709 5.351 2.128 1.354 1.418 2.063 3.223 2.063 5.351v3.159h.065Zm-3.546-3.159c0-1.354-.322-2.514-1.032-3.417-.709-.903-1.611-1.354-2.836-1.354-1.225 0-2.128.451-2.773 1.289-.645.903-.967 1.999-.967 3.417v3.224c0 1.419.322 2.515 1.032 3.417.644.903 1.612 1.354 2.772 1.354 1.225 0 2.128-.451 2.837-1.354.709-.902 1.031-1.998 1.031-3.417v-3.159h-.064Zm20.243 4.9h.129l2.514-12.12h3.417l-4.126 17.665h-3.288l-3.224-11.669h-.064l-3.224 11.669h-3.288l-4.126-17.665h3.482l2.514 12.056.064.064 3.288-12.12h2.644l3.288 12.12Zm18.888-2.256h-7.286v5.029h8.511v2.772h-12.057v-17.665h12.057v2.708h-8.511v4.448h7.286v2.708Zm6.962.708v7.028h-3.546v-17.665h6.641c1.999 0 3.61.451 4.706 1.353 1.161.903 1.677 2.192 1.677 3.804 0 .903-.258 1.677-.709 2.321-.452.645-1.161 1.161-2.128 1.612 1.032.323 1.805.838 2.256 1.547.452.71.71 1.612.71 2.644v1.289c0 .516.064 1.032.193 1.548.129.515.387.967.709 1.225v.258h-3.675c-.322-.258-.515-.71-.644-1.29-.065-.58-.129-1.16-.129-1.741v-1.225c0-.902-.258-1.547-.709-2.063-.452-.516-1.161-.709-1.999-.709h-3.353v.064Zm0-2.707h3.031c.967 0 1.74-.194 2.192-.645.515-.451.709-1.032.709-1.87 0-.838-.258-1.418-.709-1.934-.516-.451-1.225-.709-2.192-.709h-3.031v5.158ZM261.3 229.7h-7.35v5.029h8.575v2.772h-12.056v-17.665h12.056v2.708h-8.575v4.448h7.35v2.708Zm3.413 7.801v-17.665h6.06c2.128 0 3.933.709 5.352 2.063 1.418 1.354 2.063 3.159 2.063 5.287v2.901c0 2.192-.71 3.933-2.063 5.287-1.419 1.354-3.16 2.063-5.352 2.063h-6.06v.064Zm3.481-14.957v12.185h2.321c1.29 0 2.257-.451 2.966-1.289.709-.839 1.096-1.999 1.096-3.353v-2.966c0-1.354-.387-2.45-1.096-3.352-.709-.838-1.741-1.29-2.966-1.29h-2.321v.065Zm18.958 14.957v-17.665h5.932c2.063 0 3.675.387 4.835 1.225 1.161.838 1.741 1.999 1.741 3.61 0 .839-.193 1.548-.645 2.192-.451.645-1.031 1.096-1.869 1.419 1.031.193 1.869.709 2.385 1.483.516.773.774 1.612.774 2.579 0 1.676-.58 2.965-1.677 3.868-1.096.838-2.707 1.289-4.706 1.289h-6.77Zm3.546-10.251h2.515c.967 0 1.676-.193 2.192-.58.516-.387.774-.967.774-1.676 0-.838-.258-1.419-.774-1.805-.516-.387-1.29-.581-2.321-.581h-2.45v4.642h.064Zm0 2.45v5.094h3.288c.968 0 1.677-.194 2.128-.581.516-.387.709-1.031.709-1.805 0-.838-.193-1.547-.644-1.999-.387-.451-1.097-.709-1.999-.709h-3.482Zm16.949-1.741h.064l3.804-8.123h3.933l-6.06 11.412v6.253h-3.546v-6.382l-5.932-11.283h3.869l3.868 8.123Z"/>
  <path fill="#CD2355" fill-rule="evenodd" d="M81.599 204.957C64.147 204.957 50 219.104 50 236.556v55.846C50 309.853 64.147 324 81.599 324H408.4c17.453 0 31.6-14.147 31.6-31.598v-55.846c0-17.452-14.147-31.599-31.599-31.599H81.599Zm-28.401 31.599c0-15.686 12.715-28.401 28.4-28.401h63.678v112.648H81.599c-15.686 0-28.401-12.716-28.401-28.401v-55.846Zm95.275 84.247h259.928c15.686 0 28.401-12.716 28.401-28.401v-55.846c0-15.686-12.715-28.401-28.401-28.401H148.473v112.648Z" clip-rule="evenodd"/>
  <defs>
    <linearGradient id="a" x1="0" x2="488.27" y1="107.5" y2="374.42" gradientUnits="userSpaceOnUse">
      <stop offset="0" stop-color="#DC6588"/>
      <stop offset="1" stop-color="#CD2355"/>
    </linearGradient>
  </defs>
</svg>
